<svg id="svg" version="1.1" xmlns="http://www.w3.org/2000/svg" xmlns:xlink="http://www.w3.org/1999/xlink" width="400" height="361.3636363636364" viewBox="0, 0, 400,361.3636363636364"><g id="svgg"><path id="path0" d="M266.546 17.179 C 266.546 17.541,266.184 17.722,265.461 17.722 C 264.738 17.722,264.376 17.902,264.376 18.264 C 264.376 18.643,263.994 18.807,263.110 18.807 C 262.226 18.807,261.844 18.970,261.844 19.349 C 261.844 19.647,261.600 19.892,261.302 19.892 C 261.004 19.892,260.759 20.136,260.759 20.434 C 260.759 20.732,260.515 20.976,260.217 20.976 C 259.918 20.976,259.675 21.297,259.675 21.688 C 259.675 22.173,259.501 22.334,259.132 22.192 C 258.756 22.048,258.590 22.217,258.590 22.746 C 258.590 23.182,258.358 23.508,258.047 23.508 C 257.685 23.508,257.505 23.870,257.505 24.593 C 257.505 25.316,257.324 25.678,256.962 25.678 C 256.552 25.678,256.420 26.120,256.420 27.486 C 256.420 28.780,256.278 29.295,255.922 29.295 C 255.209 29.295,254.950 31.085,255.213 34.193 L 255.441 36.890 254.160 36.890 C 253.356 36.890,252.803 36.688,252.672 36.347 C 252.558 36.049,252.052 35.805,251.548 35.805 C 250.976 35.805,250.633 35.602,250.633 35.262 C 250.633 34.901,250.271 34.720,249.548 34.720 C 248.825 34.720,248.463 34.539,248.463 34.177 C 248.463 33.876,248.141 33.635,247.740 33.635 C 247.338 33.635,247.016 33.394,247.016 33.092 C 247.016 32.731,246.655 32.550,245.931 32.550 C 245.208 32.550,244.846 32.369,244.846 32.007 C 244.846 31.709,244.546 31.465,244.178 31.465 C 243.811 31.465,243.135 31.139,242.676 30.741 C 242.218 30.344,241.449 30.018,240.968 30.018 C 240.487 30.018,239.849 29.774,239.551 29.476 C 239.252 29.177,238.470 28.933,237.812 28.933 C 237.155 28.933,236.414 28.689,236.166 28.391 C 235.825 27.980,234.902 27.848,232.363 27.848 C 229.717 27.848,228.967 27.734,228.802 27.306 C 228.485 26.480,77.482 26.480,77.165 27.306 C 76.993 27.754,76.028 27.848,71.597 27.848 C 67.314 27.848,66.127 27.957,65.694 28.391 C 65.341 28.744,64.444 28.933,63.125 28.933 C 61.657 28.933,61.041 29.083,60.890 29.476 C 60.755 29.828,60.194 30.018,59.292 30.018 C 58.528 30.018,57.772 30.230,57.613 30.488 C 57.454 30.747,56.632 31.160,55.787 31.407 C 54.941 31.654,54.250 32.012,54.250 32.203 C 54.250 32.394,53.838 32.550,53.334 32.550 C 52.831 32.550,52.325 32.794,52.210 33.092 C 52.096 33.391,51.694 33.635,51.318 33.635 C 50.941 33.635,50.633 33.879,50.633 34.177 C 50.633 34.539,50.271 34.720,49.548 34.720 C 48.825 34.720,48.463 34.901,48.463 35.262 C 48.463 35.561,48.214 35.805,47.909 35.805 C 47.604 35.805,47.262 36.049,47.147 36.347 C 47.033 36.646,46.753 36.890,46.526 36.891 C 46.298 36.892,45.493 37.462,44.736 38.157 C 43.979 38.852,43.206 39.421,43.018 39.421 C 42.830 39.421,42.676 39.665,42.676 39.964 C 42.676 40.262,42.432 40.506,42.134 40.506 C 41.772 40.506,41.591 40.868,41.591 41.591 C 41.591 42.315,41.410 42.676,41.049 42.676 C 40.750 42.676,40.506 42.920,40.506 43.219 C 40.506 43.517,40.275 43.761,39.993 43.761 C 39.405 43.761,37.975 45.906,37.975 46.788 C 37.975 47.112,37.731 47.378,37.432 47.378 C 37.071 47.378,36.890 47.740,36.890 48.463 C 36.890 49.186,36.709 49.548,36.347 49.548 C 35.983 49.548,35.805 49.912,35.805 50.659 C 35.805 51.270,35.561 52.014,35.262 52.312 C 34.927 52.648,34.720 53.535,34.720 54.637 C 34.720 55.980,34.586 56.420,34.177 56.420 C 33.744 56.420,33.635 56.958,33.635 59.093 C 33.635 61.136,33.507 61.816,33.092 61.975 C 32.279 62.287,32.279 75.588,33.092 75.588 C 33.526 75.588,33.635 76.131,33.635 78.312 C 33.635 80.399,33.761 81.084,34.177 81.244 C 34.942 81.537,34.942 84.629,34.177 84.629 C 33.879 84.629,33.635 84.856,33.635 85.133 C 33.635 85.410,33.391 85.731,33.092 85.845 C 32.794 85.960,32.550 86.302,32.550 86.607 C 32.550 86.912,32.306 87.161,32.007 87.161 C 31.527 87.161,31.277 87.844,31.432 88.729 C 31.462 88.895,31.155 89.118,30.752 89.223 C 30.229 89.360,30.018 89.715,30.018 90.458 C 30.018 91.144,29.832 91.501,29.476 91.501 C 29.113 91.501,28.933 91.864,28.933 92.597 C 28.933 93.238,28.708 93.780,28.391 93.902 C 28.088 94.018,27.848 94.556,27.848 95.118 C 27.848 95.680,27.608 96.217,27.306 96.333 C 26.936 96.475,26.763 97.053,26.763 98.142 C 26.763 99.230,26.590 99.808,26.221 99.950 C 25.797 100.112,25.678 100.835,25.678 103.244 C 25.678 105.745,25.575 106.329,25.136 106.329 C 24.682 106.329,24.593 107.073,24.593 110.850 C 24.593 114.627,24.682 115.371,25.136 115.371 C 25.573 115.371,25.678 115.933,25.678 118.264 C 25.678 120.595,25.784 121.157,26.221 121.157 C 26.613 121.157,26.763 121.560,26.763 122.615 C 26.763 123.578,26.948 124.144,27.306 124.282 C 27.604 124.396,27.848 124.798,27.848 125.174 C 27.848 125.551,27.604 125.859,27.306 125.859 C 27.007 125.859,26.763 126.103,26.763 126.401 C 26.763 126.700,26.519 126.944,26.221 126.944 C 25.859 126.944,25.678 127.306,25.678 128.029 C 25.678 128.752,25.497 129.114,25.136 129.114 C 24.837 129.114,24.593 129.358,24.593 129.656 C 24.593 129.955,24.362 130.199,24.079 130.199 C 23.797 130.199,23.456 130.698,23.322 131.308 C 23.188 131.919,22.849 132.506,22.570 132.613 C 22.290 132.720,22.061 133.279,22.061 133.854 C 22.061 134.543,21.876 134.901,21.519 134.901 C 21.157 134.901,20.976 135.262,20.976 135.986 C 20.976 136.709,20.796 137.071,20.434 137.071 C 20.034 137.071,19.892 137.488,19.892 138.659 C 19.892 139.738,19.717 140.315,19.349 140.456 C 18.950 140.609,18.807 141.240,18.807 142.846 C 18.807 144.544,18.686 145.027,18.264 145.027 C 17.800 145.027,17.722 146.068,17.722 152.222 C 17.722 158.283,17.807 159.449,18.264 159.624 C 18.624 159.763,18.807 160.331,18.807 161.316 C 18.807 162.153,19.043 163.037,19.349 163.343 C 19.647 163.641,19.892 164.435,19.892 165.107 C 19.892 165.886,20.121 166.467,20.524 166.709 C 21.127 167.070,21.127 167.112,20.524 167.580 C 20.176 167.851,19.892 168.258,19.892 168.485 C 19.892 168.711,19.647 168.897,19.349 168.897 C 19.051 168.897,18.807 169.141,18.807 169.439 C 18.807 169.738,18.562 169.982,18.264 169.982 C 17.963 169.982,17.722 170.303,17.722 170.705 C 17.722 171.107,17.480 171.429,17.179 171.429 C 16.822 171.429,16.637 171.786,16.637 172.471 C 16.637 173.210,16.426 173.569,15.913 173.703 C 15.424 173.831,15.190 174.197,15.190 174.831 C 15.190 175.423,14.990 175.769,14.647 175.769 C 14.286 175.769,14.105 176.130,14.105 176.854 C 14.105 177.577,13.924 177.939,13.562 177.939 C 13.153 177.939,13.020 178.381,13.020 179.747 C 13.020 181.113,12.887 181.555,12.477 181.555 C 12.078 181.555,11.935 181.972,11.935 183.138 C 11.935 184.104,11.723 184.897,11.392 185.172 C 10.580 185.846,10.580 201.808,11.392 201.808 C 11.815 201.808,11.935 202.292,11.935 203.990 C 11.935 205.595,12.078 206.226,12.477 206.379 C 12.779 206.495,13.020 207.032,13.020 207.589 C 13.020 208.140,13.264 208.794,13.562 209.042 C 13.861 209.289,14.105 209.780,14.105 210.132 C 14.105 210.484,14.326 210.857,14.596 210.961 C 14.866 211.065,15.187 211.652,15.310 212.265 C 15.443 212.927,15.758 213.382,16.085 213.382 C 16.388 213.382,16.637 213.626,16.637 213.924 C 16.637 214.222,16.881 214.467,17.179 214.467 C 17.493 214.467,17.722 214.794,17.722 215.246 C 17.722 216.205,20.375 218.807,21.353 218.807 C 21.743 218.807,22.061 219.051,22.061 219.349 C 22.061 219.647,22.295 219.892,22.580 219.892 C 22.865 219.892,23.201 220.217,23.327 220.615 C 23.488 221.122,23.875 221.338,24.618 221.338 C 25.319 221.338,25.678 221.522,25.678 221.881 C 25.678 222.242,26.040 222.423,26.763 222.423 C 27.486 222.423,27.848 222.604,27.848 222.966 C 27.848 223.341,28.226 223.508,29.075 223.508 C 29.832 223.508,30.382 223.716,30.511 224.051 C 30.668 224.462,31.335 224.593,33.262 224.593 C 35.281 224.593,35.805 224.705,35.805 225.136 C 35.805 225.615,41.089 225.678,81.193 225.678 C 117.248 225.678,126.588 225.771,126.611 226.130 C 126.763 228.543,126.457 231.323,126.012 231.573 C 125.627 231.790,125.497 232.676,125.497 235.099 C 125.497 237.736,125.397 238.336,124.955 238.336 C 124.511 238.336,124.412 238.959,124.412 241.772 C 124.412 244.585,124.314 245.208,123.870 245.208 C 123.426 245.208,123.327 245.831,123.327 248.644 C 123.327 251.457,123.229 252.080,122.785 252.080 C 122.335 252.080,122.242 252.763,122.242 256.058 C 122.242 259.353,122.149 260.036,121.700 260.036 C 121.255 260.036,121.157 260.666,121.157 263.534 C 121.157 266.322,121.032 267.170,120.541 267.713 C 120.002 268.308,119.924 269.331,119.924 275.830 C 119.924 282.418,119.995 283.316,120.541 283.716 C 121.039 284.080,121.157 284.764,121.157 287.291 C 121.157 289.828,121.259 290.416,121.700 290.416 C 122.126 290.416,122.242 290.918,122.242 292.767 C 122.242 294.615,122.358 295.118,122.785 295.118 C 123.207 295.118,123.327 295.600,123.327 297.288 C 123.327 298.975,123.448 299.458,123.870 299.458 C 124.280 299.458,124.412 299.900,124.412 301.266 C 124.412 302.632,124.545 303.074,124.955 303.074 C 125.357 303.074,125.497 303.496,125.497 304.702 C 125.497 305.907,125.638 306.329,126.040 306.329 C 126.442 306.329,126.582 306.752,126.582 307.968 C 126.582 309.037,126.758 309.674,127.087 309.801 C 127.365 309.907,127.701 310.716,127.833 311.598 C 127.989 312.640,128.255 313.201,128.594 313.201 C 128.969 313.201,129.114 313.653,129.114 314.828 C 129.114 316.034,129.255 316.456,129.656 316.456 C 130.035 316.456,130.199 316.837,130.199 317.722 C 130.199 318.606,130.363 318.987,130.741 318.987 C 131.117 318.987,131.284 319.364,131.284 320.209 C 131.284 320.881,131.528 321.633,131.826 321.881 C 132.125 322.128,132.369 322.804,132.369 323.383 C 132.369 323.984,132.601 324.524,132.911 324.643 C 133.221 324.762,133.454 325.301,133.454 325.898 C 133.454 326.587,133.639 326.944,133.996 326.944 C 134.455 326.944,134.649 327.583,134.506 328.629 C 134.489 328.761,134.718 329.005,135.017 329.172 C 135.316 329.339,135.668 330.114,135.800 330.894 C 135.932 331.674,136.272 332.401,136.555 332.510 C 136.839 332.619,137.071 333.125,137.071 333.635 C 137.071 334.144,137.315 334.655,137.613 334.770 C 137.922 334.888,138.156 335.428,138.156 336.024 C 138.156 336.713,138.341 337.071,138.698 337.071 C 139.037 337.071,139.241 337.413,139.241 337.986 C 139.241 338.490,139.485 338.995,139.783 339.110 C 140.081 339.224,140.328 339.504,140.332 339.731 C 140.340 340.253,141.921 341.772,142.456 341.772 C 142.677 341.772,142.857 342.016,142.857 342.315 C 142.857 342.676,143.219 342.857,143.942 342.857 C 144.665 342.857,145.027 343.038,145.027 343.400 C 145.027 343.698,145.271 343.942,145.570 343.942 C 145.868 343.942,146.112 344.186,146.112 344.485 C 146.112 344.846,146.474 345.027,147.197 345.027 C 147.893 345.027,148.282 345.211,148.282 345.541 C 148.282 345.827,148.803 346.168,149.458 346.310 C 150.104 346.451,150.954 346.790,151.346 347.062 C 151.739 347.335,152.471 347.564,152.974 347.570 C 153.477 347.577,154.204 347.821,154.590 348.113 C 154.976 348.405,156.057 348.644,156.992 348.644 C 158.170 348.644,158.757 348.810,158.901 349.186 C 159.213 350.000,176.049 350.000,176.361 349.186 C 176.510 348.798,177.117 348.644,178.494 348.644 C 179.722 348.644,180.615 348.448,180.961 348.101 C 181.259 347.803,181.910 347.559,182.408 347.559 C 182.905 347.559,183.556 347.315,183.854 347.016 C 184.153 346.718,184.734 346.474,185.146 346.474 C 185.558 346.474,186.221 346.148,186.618 345.750 C 187.016 345.353,187.566 345.027,187.840 345.027 C 188.114 345.027,188.541 344.783,188.788 344.485 C 189.036 344.186,189.463 343.942,189.737 343.942 C 190.011 343.942,190.235 343.698,190.235 343.400 C 190.235 343.101,190.479 342.857,190.778 342.857 C 191.076 342.857,191.320 342.613,191.320 342.315 C 191.320 342.000,191.648 341.772,192.102 341.772 C 192.928 341.772,194.937 339.804,194.937 338.995 C 194.937 338.732,195.181 338.517,195.479 338.517 C 195.781 338.517,196.022 338.196,196.022 337.794 C 196.022 337.392,196.263 337.071,196.564 337.071 C 196.926 337.071,197.107 336.709,197.107 335.986 C 197.107 335.262,197.288 334.901,197.649 334.901 C 198.028 334.901,198.192 334.519,198.192 333.635 C 198.192 332.751,198.355 332.369,198.734 332.369 C 199.210 332.369,199.277 329.983,199.277 313.064 C 199.277 296.346,199.204 293.699,198.734 293.309 C 198.294 292.944,198.192 291.780,198.192 287.117 C 198.192 282.253,198.275 281.374,198.734 281.374 C 199.096 281.374,199.277 281.013,199.277 280.289 C 199.277 279.593,199.461 279.204,199.790 279.204 C 200.073 279.204,200.409 278.727,200.537 278.144 C 200.665 277.561,201.003 276.890,201.289 276.653 C 201.575 276.416,201.808 275.853,201.808 275.401 C 201.808 274.950,202.052 274.486,202.351 274.372 C 202.649 274.257,202.893 273.769,202.893 273.287 C 202.893 272.805,203.137 272.316,203.436 272.202 C 203.734 272.087,203.978 271.599,203.978 271.117 C 203.978 270.635,204.222 270.146,204.521 270.032 C 204.819 269.917,205.063 269.429,205.063 268.947 C 205.063 268.465,205.307 267.976,205.606 267.862 C 205.923 267.740,206.148 267.198,206.148 266.557 C 206.148 265.824,206.328 265.461,206.691 265.461 C 207.052 265.461,207.233 265.099,207.233 264.376 C 207.233 263.645,207.413 263.291,207.785 263.291 C 208.088 263.291,208.485 262.900,208.667 262.422 C 208.848 261.944,209.170 261.446,209.381 261.316 C 209.592 261.185,209.765 260.780,209.765 260.415 C 209.765 260.050,210.009 259.658,210.307 259.544 C 210.606 259.429,210.850 258.924,210.850 258.420 C 210.850 257.847,211.053 257.505,211.392 257.505 C 211.754 257.505,211.935 257.143,211.935 256.420 C 211.935 255.696,212.116 255.335,212.477 255.335 C 212.776 255.335,213.020 255.029,213.020 254.655 C 213.020 254.282,213.264 253.774,213.562 253.526 C 213.861 253.279,214.105 252.770,214.105 252.397 C 214.105 252.023,214.349 251.718,214.647 251.718 C 215.004 251.718,215.190 251.361,215.190 250.675 C 215.190 249.936,215.401 249.577,215.913 249.443 C 216.402 249.315,216.637 248.950,216.637 248.316 C 216.637 247.723,216.836 247.378,217.179 247.378 C 217.477 247.378,217.722 247.154,217.722 246.880 C 217.722 246.606,217.966 246.179,218.264 245.931 C 218.562 245.684,218.807 245.193,218.807 244.841 C 218.807 244.489,219.051 244.107,219.349 243.992 C 219.666 243.870,219.892 243.329,219.892 242.688 C 219.892 241.954,220.071 241.591,220.434 241.591 C 220.732 241.591,220.976 241.347,220.976 241.049 C 220.976 240.750,221.221 240.506,221.519 240.506 C 221.881 240.506,222.061 240.145,222.061 239.421 C 222.061 238.698,222.242 238.336,222.604 238.336 C 222.939 238.336,223.146 237.996,223.146 237.445 C 223.146 236.924,223.447 236.393,223.870 236.166 C 224.268 235.953,224.593 235.558,224.593 235.288 C 224.593 235.018,224.837 234.703,225.136 234.589 C 225.434 234.474,225.678 233.969,225.678 233.465 C 225.678 232.893,225.881 232.550,226.221 232.550 C 226.519 232.550,226.763 232.323,226.763 232.046 C 226.763 231.769,227.007 231.448,227.306 231.334 C 227.604 231.219,227.848 230.714,227.848 230.210 C 227.848 229.638,228.051 229.295,228.391 229.295 C 228.692 229.295,228.933 228.973,228.933 228.571 C 228.933 228.170,229.174 227.848,229.476 227.848 C 229.837 227.848,230.018 227.486,230.018 226.763 C 230.018 226.040,230.199 225.678,230.561 225.678 C 230.859 225.678,231.103 225.515,231.103 225.316 C 231.103 225.118,231.429 224.629,231.826 224.231 C 232.224 223.834,232.550 223.264,232.550 222.966 C 232.550 222.667,232.709 222.423,232.904 222.423 C 233.099 222.423,233.628 221.613,234.080 220.622 C 234.531 219.632,235.104 218.818,235.353 218.814 C 235.601 218.810,235.805 218.580,235.805 218.303 C 235.805 218.026,236.049 217.705,236.347 217.591 C 236.646 217.476,236.890 216.971,236.890 216.467 C 236.890 215.894,237.093 215.552,237.432 215.552 C 237.731 215.552,237.975 215.307,237.975 215.009 C 237.975 214.711,238.219 214.467,238.517 214.467 C 238.816 214.467,239.060 214.166,239.060 213.799 C 239.060 213.432,239.385 212.837,239.783 212.477 C 240.181 212.117,240.506 211.604,240.506 211.336 C 240.506 211.069,240.750 210.850,241.049 210.850 C 241.347 210.850,241.591 210.606,241.591 210.307 C 241.591 210.009,241.799 209.765,242.053 209.765 C 242.307 209.765,242.835 209.034,243.228 208.141 C 243.621 207.248,244.146 206.515,244.394 206.513 C 244.643 206.511,244.846 206.266,244.846 205.967 C 244.846 205.669,245.090 205.425,245.389 205.425 C 245.690 205.425,245.931 205.103,245.931 204.702 C 245.931 204.300,246.172 203.978,246.474 203.978 C 246.772 203.978,247.016 203.734,247.016 203.436 C 247.016 203.137,247.227 202.893,247.485 202.893 C 247.743 202.893,248.354 202.412,248.842 201.824 C 249.330 201.235,249.932 200.747,250.181 200.739 C 250.429 200.730,250.633 200.479,250.633 200.181 C 250.633 199.606,251.025 199.527,253.345 199.636 C 254.151 199.673,254.920 199.929,255.081 200.213 C 255.533 201.010,374.322 200.977,374.322 200.181 C 374.322 199.778,374.745 199.638,375.961 199.638 C 377.084 199.638,377.665 199.468,377.808 199.096 C 377.922 198.797,378.299 198.553,378.644 198.553 C 379.399 198.553,381.193 197.082,381.193 196.462 C 381.193 196.220,381.438 196.022,381.736 196.022 C 382.034 196.022,382.278 195.778,382.278 195.479 C 382.278 195.181,382.523 194.937,382.821 194.937 C 383.119 194.937,383.363 194.693,383.363 194.394 C 383.363 194.096,383.595 193.852,383.877 193.852 C 384.160 193.852,384.495 193.377,384.623 192.797 C 384.750 192.217,385.089 191.652,385.375 191.542 C 385.665 191.431,385.895 190.871,385.895 190.277 C 385.895 189.690,386.099 189.143,386.347 189.060 C 387.094 188.811,387.186 28.398,386.440 27.258 C 386.140 26.801,385.895 26.091,385.895 25.679 C 385.895 25.268,385.651 24.838,385.353 24.724 C 385.054 24.609,384.810 24.314,384.810 24.068 C 384.810 23.822,384.485 23.326,384.087 22.966 C 383.689 22.606,383.363 22.182,383.363 22.024 C 383.363 21.399,381.608 19.892,380.881 19.892 C 380.435 19.892,380.108 19.662,380.108 19.349 C 380.108 19.051,379.882 18.807,379.605 18.807 C 379.328 18.807,379.007 18.562,378.893 18.264 C 378.750 17.892,378.169 17.722,377.046 17.722 C 375.830 17.722,375.407 17.581,375.407 17.179 C 375.407 16.699,369.118 16.637,320.976 16.637 C 272.835 16.637,266.546 16.699,266.546 17.179 M370.163 108.680 L 370.163 183.906 321.769 183.998 C 288.822 184.060,273.151 183.970,272.673 183.714 C 271.961 183.332,271.504 34.222,272.213 33.513 C 272.347 33.380,294.440 33.312,321.309 33.362 L 370.163 33.454 370.163 108.680 M232.550 44.768 C 235.094 45.825,238.312 47.481,240.252 48.733 C 241.088 49.272,242.049 49.880,242.388 50.083 C 242.727 50.286,244.138 51.144,245.525 51.989 C 246.912 52.835,248.222 53.526,248.436 53.526 C 248.650 53.526,248.825 53.686,248.825 53.881 C 248.825 54.076,249.272 54.343,249.819 54.473 C 250.366 54.604,251.042 54.892,251.321 55.113 C 251.612 55.344,253.809 55.569,256.481 55.642 C 260.562 55.754,261.179 55.851,261.493 56.438 C 262.304 57.954,261.761 172.407,260.940 173.040 C 260.542 173.347,259.345 174.127,258.279 174.774 C 257.214 175.420,255.912 176.232,255.386 176.578 C 254.860 176.924,254.064 177.398,253.617 177.631 C 253.169 177.864,252.803 178.191,252.803 178.358 C 252.803 178.525,252.644 178.662,252.450 178.662 C 252.009 178.662,242.221 185.281,240.990 186.413 C 240.758 186.625,240.026 187.200,239.362 187.690 C 236.665 189.680,233.556 193.107,229.253 198.832 C 227.649 200.966,226.107 202.999,225.826 203.350 C 225.546 203.700,225.316 204.073,225.316 204.178 C 225.316 204.368,223.861 206.526,223.500 206.872 C 223.301 207.062,222.146 208.794,221.523 209.835 C 221.322 210.172,219.530 212.852,217.541 215.792 C 215.552 218.732,213.859 221.304,213.779 221.509 C 213.699 221.713,212.723 223.263,211.609 224.953 C 210.495 226.643,209.421 228.297,209.222 228.629 C 209.024 228.961,208.326 230.101,207.673 231.163 C 207.020 232.224,206.288 233.418,206.046 233.816 C 205.804 234.213,205.158 235.239,204.611 236.094 C 204.064 236.949,203.617 237.715,203.617 237.796 C 203.617 237.877,203.193 238.560,202.676 239.315 C 202.159 240.070,201.590 241.013,201.411 241.410 C 201.233 241.808,200.883 242.444,200.634 242.823 C 198.640 245.855,197.830 247.247,197.830 247.641 C 197.830 247.894,197.701 248.101,197.544 248.101 C 197.387 248.101,196.806 248.956,196.254 250.000 C 195.702 251.044,194.699 252.875,194.024 254.069 C 193.350 255.262,192.618 256.642,192.398 257.135 C 192.178 257.629,191.886 258.117,191.750 258.221 C 190.876 258.883,183.002 274.942,183.002 276.060 C 183.002 276.318,182.809 276.721,182.573 276.957 C 182.058 277.472,182.113 299.355,182.653 308.861 C 182.839 312.143,182.994 317.628,182.997 321.049 L 183.002 327.271 181.768 328.469 C 177.648 332.470,165.712 335.089,161.532 332.909 C 160.962 332.612,160.067 332.368,159.543 332.367 C 159.018 332.365,158.123 332.121,157.554 331.824 C 156.984 331.527,156.305 331.284,156.044 331.284 C 155.274 331.284,153.345 329.467,153.345 328.741 C 153.345 328.373,153.197 327.980,153.015 327.867 C 152.698 327.672,152.302 326.884,150.090 322.061 C 149.543 320.868,148.750 319.148,148.327 318.240 C 147.905 317.332,147.559 316.335,147.559 316.024 C 147.559 315.713,147.315 315.257,147.016 315.009 C 146.718 314.761,146.469 314.213,146.462 313.789 C 146.456 313.366,146.212 312.704,145.920 312.318 C 145.628 311.932,145.389 311.260,145.389 310.825 C 145.389 310.390,145.145 309.832,144.846 309.584 C 144.548 309.336,144.303 308.788,144.302 308.364 C 144.300 307.941,144.056 307.129,143.759 306.559 C 143.462 305.989,143.219 305.297,143.219 305.021 C 143.219 304.744,142.893 303.911,142.495 303.169 C 142.098 302.426,141.766 301.491,141.759 301.090 C 141.752 300.690,141.514 299.955,141.230 299.458 C 140.945 298.960,140.707 298.137,140.700 297.628 C 140.693 297.119,140.448 296.387,140.156 296.000 C 139.864 295.614,139.620 294.788,139.614 294.164 C 139.607 293.541,139.359 292.564,139.062 291.994 C 138.765 291.425,138.515 290.389,138.507 289.693 C 138.498 288.996,138.259 288.020,137.975 287.523 C 137.690 287.025,137.446 285.723,137.432 284.629 C 137.418 283.535,137.174 282.233,136.890 281.736 C 136.163 280.464,136.155 271.630,136.879 269.620 C 137.166 268.825,137.408 267.176,137.416 265.957 C 137.425 264.738,137.676 263.157,137.975 262.443 C 138.273 261.729,138.517 260.183,138.517 259.008 C 138.517 257.833,138.761 256.180,139.060 255.335 C 139.358 254.489,139.609 252.800,139.618 251.582 C 139.627 250.364,139.868 248.716,140.155 247.920 C 140.442 247.125,140.679 245.706,140.682 244.769 C 140.685 243.831,140.914 242.366,141.191 241.514 C 141.468 240.661,141.800 238.842,141.930 237.470 C 142.059 236.098,142.331 234.666,142.534 234.287 C 142.736 233.908,142.991 232.426,143.100 230.994 C 143.209 229.562,143.524 227.693,143.801 226.841 C 144.077 225.989,144.310 224.524,144.317 223.586 C 144.324 222.648,144.562 221.474,144.846 220.976 C 145.131 220.479,145.369 219.168,145.376 218.062 C 145.384 216.872,145.606 215.765,145.920 215.349 C 146.212 214.963,146.456 213.966,146.462 213.134 C 146.469 212.301,146.643 211.176,146.849 210.632 C 147.132 209.889,147.110 209.564,146.759 209.321 C 146.486 209.131,124.758 209.098,94.389 209.241 C 47.127 209.462,42.360 209.432,41.090 208.901 C 40.322 208.581,39.325 208.318,38.874 208.318 C 35.081 208.318,28.210 201.588,28.210 197.873 C 28.210 197.332,28.018 196.698,27.784 196.464 C 27.062 195.742,26.952 190.265,27.626 188.650 C 27.947 187.882,28.210 186.816,28.210 186.282 C 28.210 185.747,28.449 184.994,28.741 184.608 C 29.033 184.222,29.277 183.560,29.283 183.137 C 29.290 182.713,29.539 182.164,29.837 181.917 C 30.136 181.669,30.380 181.283,30.381 181.059 C 30.384 179.318,37.779 171.429,39.407 171.429 C 39.614 171.429,39.783 171.266,39.783 171.067 C 39.783 170.868,39.989 170.705,40.240 170.705 C 40.492 170.705,41.305 170.380,42.047 169.982 C 42.790 169.584,43.672 169.259,44.007 169.259 C 45.183 169.259,47.740 167.770,47.740 167.086 C 47.740 166.722,47.823 166.206,47.925 165.940 C 48.047 165.624,47.449 165.162,46.208 164.610 C 45.160 164.145,44.060 163.616,43.761 163.435 C 43.463 163.254,42.975 162.996,42.676 162.863 C 37.043 160.338,33.759 153.221,34.861 145.931 C 35.224 143.532,37.149 138.613,38.133 137.567 C 38.344 137.343,38.761 136.781,39.060 136.319 C 40.306 134.389,45.591 129.476,46.420 129.476 C 46.724 129.476,47.065 129.327,47.178 129.145 C 47.502 128.621,50.323 127.400,51.798 127.147 C 54.640 126.658,56.934 122.966,54.396 122.966 C 53.570 122.966,52.510 122.543,50.633 121.467 C 50.335 121.296,49.714 120.993,49.253 120.795 C 48.169 120.328,44.591 116.750,44.124 115.666 C 43.925 115.205,43.620 114.584,43.444 114.286 C 41.863 111.593,41.254 104.136,42.484 102.510 C 42.776 102.124,43.020 101.427,43.026 100.960 C 43.065 98.128,49.530 89.737,53.112 87.869 C 53.938 87.439,54.705 86.940,54.815 86.762 C 54.925 86.584,55.320 86.438,55.692 86.438 C 56.064 86.438,56.600 86.205,56.884 85.921 C 57.168 85.637,58.034 85.299,58.809 85.171 C 61.786 84.675,62.254 84.325,62.134 82.683 C 62.033 81.304,61.939 81.186,60.759 80.974 C 57.242 80.339,52.080 75.442,52.080 72.740 C 52.080 72.366,51.835 71.857,51.537 71.609 C 50.761 70.965,50.752 62.666,51.526 61.642 C 51.818 61.256,52.062 60.577,52.068 60.132 C 52.084 59.010,54.025 55.436,55.530 53.758 C 56.218 52.990,56.781 52.250,56.781 52.114 C 56.781 51.978,57.631 51.223,58.670 50.436 C 59.709 49.649,60.818 48.761,61.135 48.463 C 62.135 47.520,67.198 45.208,68.262 45.208 C 68.631 45.208,69.125 45.016,69.359 44.782 C 70.197 43.944,77.889 43.864,153.707 43.903 L 230.561 43.942 232.550 44.768 " stroke="none" fill="#4a5461" fill-rule="evenodd"></path><path id="path1" d="M272.213 33.513 C 271.504 34.222,271.961 183.332,272.673 183.714 C 273.151 183.970,288.822 184.060,321.769 183.998 L 370.163 183.906 370.163 108.680 L 370.163 33.454 321.309 33.362 C 294.440 33.312,272.347 33.380,272.213 33.513 " stroke="none" fill="#7c8cb3" fill-rule="evenodd"></path><path id="path2" d="M95.660 44.836 C 77.410 44.980,71.177 45.139,70.410 45.479 C 69.850 45.728,68.984 45.931,68.486 45.931 C 67.987 45.931,67.335 46.175,67.037 46.474 C 66.739 46.772,66.109 47.016,65.637 47.016 C 65.166 47.016,64.686 47.169,64.570 47.357 C 64.454 47.544,63.628 48.062,62.735 48.509 C 61.040 49.355,56.058 53.881,56.058 54.574 C 56.058 54.793,55.814 54.973,55.515 54.973 C 55.217 54.973,54.973 55.287,54.973 55.670 C 54.973 56.054,54.737 56.604,54.448 56.893 C 54.160 57.181,53.817 57.844,53.686 58.365 C 53.555 58.886,53.324 59.313,53.172 59.313 C 53.020 59.313,52.789 60.120,52.658 61.106 C 52.527 62.093,52.262 62.997,52.069 63.117 C 51.490 63.475,51.641 69.571,52.258 70.754 C 52.555 71.324,52.799 72.062,52.801 72.394 C 52.803 73.161,53.926 75.316,54.521 75.696 C 54.769 75.855,54.973 76.221,54.973 76.510 C 54.973 76.798,55.217 77.034,55.515 77.034 C 55.814 77.034,56.058 77.261,56.058 77.538 C 56.058 77.814,56.465 78.143,56.962 78.268 C 57.459 78.393,57.866 78.654,57.866 78.850 C 57.866 79.045,58.172 79.204,58.545 79.204 C 58.919 79.204,59.427 79.448,59.675 79.747 C 59.922 80.045,60.498 80.289,60.955 80.289 C 62.647 80.289,62.929 80.623,62.929 82.623 C 62.929 84.951,62.242 85.714,60.142 85.714 C 59.282 85.714,58.492 85.938,58.228 86.257 C 57.980 86.555,57.411 86.799,56.962 86.799 C 56.513 86.799,55.944 87.043,55.696 87.342 C 55.449 87.640,55.033 87.884,54.774 87.884 C 54.514 87.884,54.086 88.088,53.823 88.336 C 53.560 88.585,52.654 89.258,51.808 89.832 C 50.963 90.406,50.271 91.017,50.271 91.188 C 50.271 91.360,50.027 91.501,49.729 91.501 C 49.430 91.501,49.186 91.654,49.186 91.840 C 49.186 92.027,48.698 92.714,48.101 93.368 C 47.505 94.021,47.016 94.755,47.016 94.999 C 47.016 95.243,46.813 95.573,46.564 95.732 C 46.148 95.999,45.761 96.729,44.347 99.915 C 42.359 104.392,42.369 110.331,44.370 114.246 C 45.331 116.125,45.435 116.245,48.822 119.349 C 49.692 120.147,54.867 122.604,55.676 122.604 C 55.887 122.604,56.058 123.327,56.058 124.217 C 56.058 126.171,54.738 127.660,52.987 127.680 C 52.389 127.686,51.248 128.006,50.452 128.391 C 49.656 128.775,48.802 129.095,48.553 129.102 C 48.305 129.108,48.101 129.259,48.101 129.436 C 48.101 129.614,47.683 129.864,47.172 129.992 C 46.661 130.120,45.771 130.708,45.195 131.297 C 44.619 131.887,44.060 132.369,43.954 132.369 C 43.520 132.369,39.060 137.323,39.060 137.805 C 39.060 137.969,38.856 138.326,38.608 138.598 C 37.890 139.383,36.890 141.412,36.890 142.083 C 36.890 142.420,36.615 143.088,36.280 143.567 C 35.375 144.859,35.363 153.136,36.265 154.423 C 36.609 154.913,36.890 155.529,36.890 155.792 C 36.890 156.365,37.231 156.802,39.661 159.347 C 40.688 160.422,41.688 161.302,41.883 161.302 C 42.078 161.302,42.331 161.546,42.445 161.844 C 42.560 162.143,43.048 162.387,43.530 162.387 C 44.013 162.387,44.501 162.631,44.615 162.929 C 44.730 163.228,45.216 163.472,45.695 163.472 C 46.174 163.472,46.769 163.716,47.016 164.014 C 47.264 164.313,47.777 164.557,48.157 164.557 C 50.778 164.557,48.238 169.320,45.360 169.801 C 44.062 170.018,42.237 170.701,40.868 171.482 C 40.570 171.653,39.959 171.950,39.512 172.144 C 39.064 172.337,38.698 172.662,38.698 172.866 C 38.698 173.070,38.490 173.237,38.235 173.237 C 37.670 173.237,33.273 177.617,33.273 178.181 C 33.273 178.403,33.029 178.678,32.731 178.793 C 32.432 178.907,32.188 179.233,32.188 179.516 C 32.188 179.799,31.944 180.125,31.646 180.239 C 31.347 180.354,31.103 180.758,31.103 181.138 C 31.103 181.518,30.859 182.031,30.561 182.278 C 30.262 182.526,30.018 183.050,30.018 183.442 C 30.018 183.835,29.790 184.588,29.512 185.116 C 27.581 188.776,28.286 198.848,30.651 201.377 C 30.900 201.642,31.103 202.048,31.103 202.277 C 31.103 202.788,33.935 205.352,34.810 205.632 C 35.158 205.744,35.443 205.987,35.443 206.173 C 35.443 206.358,35.732 206.510,36.086 206.510 C 36.439 206.510,37.063 206.744,37.472 207.031 C 39.191 208.235,46.230 208.378,97.539 208.257 L 147.740 208.137 147.853 209.724 C 147.916 210.596,147.794 211.483,147.582 211.695 C 147.370 211.906,147.190 212.739,147.181 213.544 C 147.173 214.350,146.929 215.660,146.640 216.456 C 146.352 217.251,146.019 218.797,145.902 219.892 C 145.785 220.986,145.459 222.494,145.177 223.244 C 144.896 223.994,144.665 225.434,144.665 226.445 C 144.665 227.455,144.435 228.794,144.153 229.421 C 143.871 230.048,143.570 231.831,143.483 233.383 C 143.396 234.935,143.138 236.392,142.910 236.620 C 142.682 236.848,142.495 237.973,142.495 239.119 C 142.495 240.266,142.269 241.902,141.992 242.754 C 141.716 243.606,141.397 245.443,141.285 246.835 C 141.173 248.228,140.920 249.855,140.723 250.452 C 140.381 251.484,140.041 253.839,139.236 260.759 C 139.039 262.450,138.723 264.191,138.534 264.627 C 138.344 265.064,138.087 266.691,137.962 268.244 C 137.837 269.797,137.504 271.681,137.222 272.430 C 136.572 274.159,136.569 276.408,137.214 278.687 C 137.491 279.668,137.812 281.587,137.927 282.953 C 138.042 284.319,138.287 285.621,138.472 285.846 C 138.656 286.072,138.976 287.233,139.181 288.427 C 139.680 291.323,140.497 294.448,141.001 295.390 C 141.226 295.811,141.416 296.532,141.422 296.992 C 141.428 297.453,141.672 298.146,141.964 298.532 C 142.257 298.918,142.495 299.784,142.495 300.457 C 142.495 301.129,142.740 301.923,143.038 302.222 C 143.336 302.520,143.580 303.221,143.580 303.779 C 143.580 304.337,143.825 304.996,144.123 305.244 C 144.421 305.492,144.665 306.143,144.665 306.691 C 144.665 307.239,144.910 307.890,145.208 308.137 C 145.506 308.385,145.750 308.894,145.750 309.268 C 145.750 309.642,146.076 310.556,146.474 311.298 C 146.872 312.040,147.197 312.856,147.197 313.110 C 147.197 313.364,147.347 313.855,147.530 314.200 C 148.703 316.416,149.367 318.019,149.367 318.637 C 149.367 319.029,149.519 319.349,149.704 319.349 C 149.890 319.349,150.145 319.715,150.272 320.163 C 150.514 321.021,151.429 323.135,151.954 324.051 C 152.125 324.349,152.357 324.837,152.470 325.136 C 152.582 325.434,152.826 325.922,153.011 326.221 C 153.196 326.519,153.514 327.151,153.717 327.624 C 154.439 329.305,155.566 330.561,156.354 330.563 C 156.788 330.564,157.609 330.808,158.179 331.105 C 158.749 331.402,159.681 331.646,160.251 331.646 C 160.821 331.646,161.936 331.905,162.729 332.222 C 169.540 334.948,182.640 329.800,182.144 324.593 C 181.533 318.185,181.448 277.142,182.043 275.950 C 182.372 275.292,182.640 274.473,182.640 274.130 C 182.640 273.787,182.884 273.304,183.183 273.056 C 183.481 272.808,183.725 272.375,183.725 272.092 C 183.725 271.810,184.295 270.523,184.991 269.234 C 185.687 267.945,186.257 266.650,186.257 266.356 C 186.257 266.063,186.386 265.823,186.543 265.823 C 186.701 265.823,187.279 264.887,187.829 263.743 C 188.754 261.818,190.606 258.407,191.744 256.533 C 192.008 256.098,192.763 254.715,193.422 253.459 C 194.081 252.203,194.933 250.687,195.316 250.090 C 195.698 249.494,196.179 248.680,196.383 248.282 C 196.588 247.884,197.078 247.071,197.473 246.474 C 197.867 245.877,198.369 244.941,198.588 244.394 C 198.807 243.847,199.133 243.400,199.312 243.400 C 199.492 243.400,199.638 243.209,199.638 242.976 C 199.638 242.743,199.870 242.295,200.152 241.981 C 200.435 241.667,201.093 240.597,201.615 239.602 C 202.137 238.608,202.880 237.306,203.266 236.709 C 203.652 236.112,204.129 235.258,204.326 234.810 C 204.523 234.363,204.851 233.996,205.054 233.996 C 205.258 233.996,205.425 233.777,205.425 233.508 C 205.425 233.240,205.913 232.346,206.510 231.522 C 207.107 230.698,207.595 229.872,207.595 229.685 C 207.595 229.499,207.809 229.131,208.071 228.869 C 208.332 228.606,209.024 227.603,209.608 226.641 C 210.191 225.678,210.951 224.458,211.297 223.928 C 211.642 223.399,212.085 222.599,212.282 222.152 C 212.479 221.704,212.807 221.338,213.011 221.338 C 213.215 221.338,213.382 221.144,213.382 220.906 C 213.382 220.669,214.806 218.381,216.546 215.823 C 218.287 213.264,219.873 210.896,220.072 210.560 C 220.271 210.224,220.882 209.355,221.429 208.629 C 221.976 207.904,222.423 207.217,222.423 207.102 C 222.423 206.906,226.453 201.249,229.501 197.166 C 230.268 196.139,231.024 195.298,231.180 195.298 C 231.337 195.298,231.465 195.132,231.465 194.930 C 231.465 194.262,234.121 191.174,236.437 189.150 C 237.689 188.056,238.942 186.958,239.222 186.709 C 239.502 186.460,239.906 186.257,240.119 186.257 C 240.332 186.257,240.506 186.116,240.506 185.944 C 240.506 185.772,241.198 185.162,242.043 184.588 C 242.889 184.014,243.635 183.422,243.701 183.273 C 243.767 183.124,243.995 183.002,244.206 183.002 C 244.418 183.002,245.286 182.432,246.136 181.736 C 246.985 181.040,247.857 180.470,248.072 180.470 C 248.287 180.470,248.463 180.330,248.463 180.159 C 248.463 179.988,249.561 179.140,250.904 178.276 C 252.247 177.411,253.560 176.494,253.823 176.236 C 254.086 175.979,254.534 175.769,254.818 175.769 C 255.102 175.769,255.335 175.617,255.335 175.431 C 255.335 175.246,255.701 174.980,256.148 174.840 C 256.596 174.701,257.532 174.147,258.228 173.610 C 258.924 173.073,259.778 172.530,260.127 172.404 C 260.726 172.187,260.759 169.099,260.759 114.478 L 260.759 56.781 257.522 56.781 C 254.358 56.781,250.491 56.060,249.766 55.336 C 249.567 55.136,249.190 54.973,248.929 54.973 C 248.669 54.973,247.645 54.403,246.655 53.707 C 245.664 53.011,244.689 52.441,244.488 52.441 C 244.287 52.441,244.123 52.289,244.123 52.104 C 244.123 51.918,243.802 51.665,243.409 51.540 C 243.016 51.415,241.688 50.641,240.458 49.820 C 237.923 48.127,235.852 47.016,235.230 47.016 C 234.998 47.016,234.620 46.789,234.389 46.512 C 234.159 46.234,233.366 45.894,232.627 45.756 C 231.888 45.618,231.055 45.316,230.776 45.085 C 230.225 44.630,142.438 44.468,95.660 44.836 " stroke="none" fill="#f6f6f8" fill-rule="evenodd"></path><path id="path3" d="M255.081 35.081 C 255.081 36.175,255.149 36.623,255.232 36.076 C 255.315 35.529,255.315 34.634,255.232 34.087 C 255.149 33.540,255.081 33.987,255.081 35.081 M73.319 44.115 C 71.375 44.248,69.593 44.548,69.359 44.782 C 69.125 45.016,68.631 45.208,68.262 45.208 C 67.198 45.208,62.135 47.520,61.135 48.463 C 60.818 48.761,59.709 49.649,58.670 50.436 C 57.631 51.223,56.781 51.978,56.781 52.114 C 56.781 52.250,56.218 52.990,55.530 53.758 C 54.025 55.436,52.084 59.010,52.068 60.132 C 52.062 60.577,51.818 61.256,51.526 61.642 C 50.752 62.666,50.761 70.965,51.537 71.609 C 51.835 71.857,52.080 72.366,52.080 72.740 C 52.080 75.442,57.242 80.339,60.759 80.974 C 63.648 81.495,62.571 84.571,59.313 85.106 C 58.638 85.216,58.732 85.267,59.684 85.303 C 61.650 85.379,62.568 84.537,62.568 82.658 C 62.568 81.008,62.217 80.651,60.593 80.651 C 60.137 80.651,59.560 80.407,59.313 80.108 C 59.065 79.810,58.583 79.566,58.241 79.566 C 56.920 79.566,52.441 74.395,52.441 72.870 C 52.441 72.560,52.187 71.919,51.876 71.445 C 51.180 70.383,51.298 63.123,52.044 61.121 C 52.827 59.021,54.700 55.178,55.130 54.792 C 55.351 54.593,55.904 53.942,56.357 53.345 C 58.622 50.366,65.993 45.570,68.306 45.570 C 68.669 45.570,69.470 45.318,70.086 45.011 C 71.079 44.516,79.975 44.421,149.075 44.167 L 226.944 43.882 151.899 43.877 C 110.624 43.875,75.263 43.982,73.319 44.115 M229.114 44.494 C 232.225 44.867,238.438 47.615,241.769 50.091 C 247.409 54.284,251.971 56.058,257.113 56.058 C 260.876 56.058,261.046 56.091,261.255 56.872 C 261.537 57.926,261.541 170.631,261.259 171.685 C 261.129 172.169,259.964 173.165,258.299 174.216 C 240.241 185.614,235.446 189.597,228.933 198.606 C 228.237 199.570,227.128 201.091,226.469 201.987 C 225.811 202.883,225.427 203.617,225.617 203.617 C 225.807 203.617,226.049 203.391,226.155 203.114 C 226.359 202.583,231.470 195.776,233.173 193.768 C 234.787 191.864,238.057 188.653,239.362 187.690 C 240.026 187.200,240.758 186.625,240.990 186.413 C 242.221 185.281,252.009 178.662,252.450 178.662 C 252.644 178.662,252.803 178.525,252.803 178.358 C 252.803 178.191,253.169 177.864,253.617 177.631 C 254.064 177.398,254.860 176.924,255.386 176.578 C 255.912 176.232,257.214 175.420,258.279 174.774 C 259.345 174.127,260.542 173.347,260.940 173.040 C 261.761 172.407,262.304 57.954,261.493 56.438 C 261.179 55.851,260.562 55.754,256.481 55.642 C 253.809 55.569,251.612 55.344,251.321 55.113 C 251.042 54.892,250.366 54.604,249.819 54.473 C 249.272 54.343,248.825 54.076,248.825 53.881 C 248.825 53.686,248.650 53.526,248.436 53.526 C 248.222 53.526,246.912 52.835,245.525 51.989 C 244.138 51.144,242.727 50.286,242.388 50.083 C 242.049 49.880,241.088 49.272,240.252 48.733 C 235.825 45.876,231.380 44.103,228.829 44.178 L 226.944 44.233 229.114 44.494 M56.857 85.909 C 56.259 86.588,56.754 86.572,57.664 85.884 C 58.158 85.510,58.211 85.357,57.845 85.366 C 57.558 85.374,57.114 85.618,56.857 85.909 M54.815 86.762 C 54.705 86.940,53.938 87.439,53.112 87.869 C 49.530 89.737,43.065 98.128,43.026 100.960 C 43.020 101.427,42.776 102.124,42.484 102.510 C 41.254 104.136,41.863 111.593,43.444 114.286 C 43.620 114.584,43.925 115.205,44.124 115.666 C 44.591 116.750,48.169 120.328,49.253 120.795 C 49.714 120.993,50.335 121.296,50.633 121.467 C 52.510 122.543,53.570 122.966,54.396 122.966 C 56.934 122.966,54.640 126.658,51.798 127.147 C 50.323 127.400,47.502 128.621,47.178 129.145 C 47.065 129.327,46.724 129.476,46.420 129.476 C 45.591 129.476,40.306 134.389,39.060 136.319 C 38.761 136.781,38.344 137.343,38.133 137.567 C 33.690 142.287,33.577 153.441,37.918 158.885 C 38.988 160.226,42.002 162.749,42.536 162.749 C 42.681 162.749,43.088 163.009,43.441 163.328 C 43.793 163.647,44.271 163.845,44.502 163.768 C 44.734 163.690,44.304 163.307,43.547 162.917 C 40.540 161.364,37.824 158.638,36.347 155.691 C 35.026 153.055,34.723 145.581,35.841 143.191 C 38.589 137.310,38.897 136.841,42.118 133.628 C 45.534 130.222,49.136 128.020,52.196 127.466 C 55.439 126.879,57.135 123.165,54.430 122.573 C 43.292 120.131,38.832 106.969,45.555 96.383 C 46.060 95.588,46.555 94.749,46.655 94.520 C 47.190 93.284,52.311 88.491,53.888 87.749 C 55.478 87.002,56.215 86.448,55.627 86.443 C 55.291 86.440,54.925 86.584,54.815 86.762 M45.760 164.327 C 46.153 164.599,46.852 164.939,47.314 165.083 C 47.861 165.254,48.081 165.534,47.947 165.885 C 47.833 166.182,47.740 166.722,47.740 167.086 C 47.740 167.770,45.183 169.259,44.007 169.259 C 43.672 169.259,42.790 169.584,42.047 169.982 C 41.305 170.380,40.940 170.700,41.235 170.694 C 41.530 170.687,42.088 170.443,42.474 170.151 C 42.860 169.859,43.510 169.620,43.917 169.620 C 45.567 169.620,47.777 168.390,47.989 167.352 C 48.102 166.801,48.336 166.263,48.510 166.156 C 49.140 165.766,48.793 165.329,47.264 164.589 C 45.489 163.730,44.699 163.592,45.760 164.327 M39.783 171.067 C 39.783 171.266,39.614 171.429,39.407 171.429 C 37.779 171.429,30.384 179.318,30.381 181.059 C 30.380 181.283,30.136 181.669,29.837 181.917 C 29.539 182.164,29.290 182.713,29.283 183.137 C 29.277 183.560,29.033 184.222,28.741 184.608 C 28.449 184.994,28.210 185.747,28.210 186.282 C 28.210 186.816,27.947 187.882,27.626 188.650 C 26.952 190.265,27.062 195.742,27.784 196.464 C 28.018 196.698,28.210 197.332,28.210 197.873 C 28.210 201.588,35.081 208.318,38.874 208.318 C 39.325 208.318,40.322 208.581,41.090 208.901 C 42.360 209.432,47.127 209.462,94.389 209.241 C 124.758 209.098,146.486 209.131,146.759 209.321 C 147.110 209.564,147.132 209.889,146.849 210.632 C 146.643 211.176,146.469 212.301,146.462 213.134 C 146.456 213.966,146.212 214.963,145.920 215.349 C 145.581 215.797,145.408 216.781,145.442 218.062 L 145.495 220.072 145.717 218.083 C 145.839 216.989,146.095 215.850,146.286 215.552 C 146.477 215.253,146.743 214.195,146.878 213.201 C 147.013 212.206,147.246 210.760,147.396 209.987 L 147.669 208.581 95.263 208.721 C 37.865 208.874,40.402 208.959,35.861 206.731 C 30.281 203.994,25.991 194.927,27.839 189.778 C 28.070 189.134,28.394 187.875,28.559 186.980 C 28.875 185.263,29.541 183.187,30.067 182.278 C 30.240 181.980,30.550 181.344,30.755 180.865 C 30.961 180.386,31.611 179.444,32.201 178.773 C 32.791 178.101,33.273 177.415,33.273 177.249 C 33.273 176.730,37.135 173.164,38.862 172.089 C 40.497 171.072,40.836 170.705,40.145 170.705 C 39.946 170.705,39.783 170.868,39.783 171.067 M223.845 205.676 C 223.191 206.632,222.117 208.228,221.459 209.222 C 219.704 211.874,219.414 212.295,218.716 213.209 C 218.368 213.665,218.083 214.152,218.083 214.291 C 218.083 214.430,217.595 215.160,216.998 215.913 C 216.401 216.667,215.913 217.399,215.913 217.541 C 215.913 217.682,215.405 218.439,214.785 219.223 C 214.164 220.007,213.741 220.733,213.845 220.837 C 213.995 220.987,220.001 212.382,221.523 209.835 C 222.146 208.794,223.301 207.062,223.500 206.872 C 224.081 206.316,225.354 204.257,225.207 204.110 C 225.112 204.015,224.499 204.719,223.845 205.676 M144.724 221.174 C 144.493 221.681,144.323 222.617,144.345 223.254 L 144.387 224.412 144.676 223.146 C 144.834 222.450,145.079 221.514,145.219 221.067 C 145.563 219.966,145.243 220.035,144.724 221.174 M212.472 222.841 C 211.943 223.705,211.198 224.853,210.818 225.392 C 210.438 225.931,210.127 226.450,210.127 226.545 C 210.127 226.640,209.394 227.787,208.499 229.095 C 207.604 230.402,206.872 231.613,206.872 231.786 C 206.872 231.958,206.627 232.302,206.329 232.550 C 206.031 232.797,205.787 233.152,205.787 233.339 C 205.787 234.005,206.485 233.226,207.663 231.245 C 208.322 230.138,209.024 228.961,209.222 228.629 C 209.421 228.297,210.534 226.589,211.695 224.834 C 212.856 223.078,213.722 221.558,213.620 221.456 C 213.518 221.354,213.001 221.977,212.472 222.841 M143.670 227.115 C 143.422 227.910,143.232 228.929,143.247 229.379 C 143.263 229.830,143.325 230.036,143.384 229.837 C 143.444 229.638,143.695 228.803,143.942 227.980 C 144.190 227.158,144.331 226.302,144.256 226.078 C 144.182 225.854,143.918 226.321,143.670 227.115 M142.737 233.273 C 142.581 233.969,142.287 235.678,142.084 237.071 C 141.881 238.463,141.483 240.394,141.201 241.362 C 140.918 242.329,140.685 243.875,140.682 244.797 C 140.679 245.719,140.442 247.125,140.155 247.920 C 139.868 248.716,139.627 250.364,139.618 251.582 C 139.609 252.800,139.358 254.489,139.060 255.335 C 138.761 256.180,138.517 257.833,138.517 259.008 C 138.517 260.183,138.273 261.729,137.975 262.443 C 137.676 263.157,137.425 264.738,137.416 265.957 C 137.408 267.176,137.166 268.825,136.879 269.620 C 136.593 270.416,136.378 271.718,136.402 272.514 C 136.430 273.428,136.500 273.627,136.593 273.056 C 136.673 272.559,136.977 271.165,137.267 269.959 C 137.557 268.753,137.796 267.044,137.798 266.161 C 137.800 265.279,138.044 263.758,138.340 262.782 C 138.636 261.805,138.881 260.178,138.883 259.165 C 138.885 258.152,139.129 256.525,139.425 255.548 C 139.721 254.572,139.964 252.924,139.964 251.887 C 139.964 250.849,140.208 249.309,140.506 248.463 C 140.805 247.617,141.049 246.138,141.049 245.175 C 141.049 244.213,141.275 242.728,141.552 241.875 C 141.828 241.023,142.148 239.228,142.261 237.886 C 142.375 236.545,142.647 235.113,142.866 234.704 C 143.084 234.295,143.209 233.521,143.142 232.984 C 143.027 232.061,143.005 232.077,142.737 233.273 M205.168 234.440 C 204.595 235.175,194.213 252.732,194.213 252.967 C 194.213 253.083,193.834 253.786,193.370 254.528 C 192.556 255.832,191.233 258.210,188.797 262.749 C 188.156 263.942,187.309 265.448,186.914 266.095 C 186.520 266.742,186.253 267.440,186.322 267.646 C 186.391 267.852,187.103 266.753,187.905 265.204 C 190.296 260.581,191.486 258.420,191.750 258.220 C 191.886 258.117,192.178 257.629,192.398 257.135 C 192.618 256.642,193.350 255.262,194.024 254.069 C 194.699 252.875,195.702 251.044,196.254 250.000 C 196.806 248.956,197.387 248.101,197.544 248.101 C 197.701 248.101,197.830 247.894,197.830 247.641 C 197.830 247.247,198.640 245.855,200.634 242.823 C 200.883 242.444,201.233 241.808,201.411 241.410 C 201.590 241.013,202.159 240.070,202.676 239.315 C 203.193 238.560,203.617 237.877,203.617 237.796 C 203.617 237.715,204.123 236.899,204.741 235.983 C 205.742 234.500,206.083 233.267,205.168 234.440 M184.508 271.338 C 182.579 275.429,181.835 277.589,182.022 278.562 C 182.141 279.180,182.192 279.098,182.229 278.231 C 182.256 277.596,182.441 276.976,182.640 276.854 C 182.839 276.731,183.002 276.387,183.002 276.089 C 183.002 275.580,184.080 272.866,184.802 271.557 C 185.364 270.538,186.227 268.354,186.068 268.354 C 185.984 268.354,185.282 269.697,184.508 271.338 M136.411 278.843 C 136.388 280.048,136.590 281.188,136.923 281.736 L 137.473 282.640 137.212 281.555 C 137.068 280.958,136.838 279.656,136.700 278.662 L 136.449 276.854 136.411 278.843 M181.987 291.139 C 181.945 296.212,182.099 306.369,182.330 313.712 L 182.749 327.063 181.288 328.359 C 180.483 329.073,179.442 329.943,178.972 330.293 C 178.466 330.670,178.679 330.614,179.495 330.155 C 180.251 329.730,181.375 328.877,181.991 328.261 L 183.111 327.141 182.827 317.006 C 182.670 311.432,182.434 301.257,182.303 294.394 L 182.063 281.917 181.987 291.139 M137.496 284.810 C 137.475 285.805,137.690 287.025,137.975 287.523 C 138.259 288.020,138.498 288.996,138.507 289.693 C 138.515 290.389,138.765 291.425,139.062 291.994 C 139.359 292.564,139.607 293.541,139.614 294.164 C 139.620 294.788,139.864 295.614,140.156 296.000 C 140.448 296.387,140.687 297.086,140.687 297.555 C 140.687 298.025,140.910 298.848,141.181 299.385 C 141.453 299.922,141.784 300.931,141.916 301.627 C 142.171 302.969,143.228 304.728,143.207 303.776 C 143.201 303.490,142.957 302.939,142.665 302.553 C 142.373 302.167,142.134 301.425,142.134 300.904 C 142.134 300.383,141.895 299.642,141.603 299.255 C 141.311 298.869,141.061 298.065,141.049 297.468 C 141.036 296.872,140.787 296.067,140.495 295.681 C 140.203 295.295,139.958 294.481,139.951 293.873 C 139.944 293.265,139.706 292.360,139.421 291.863 C 139.137 291.365,138.899 290.440,138.892 289.807 C 138.885 289.173,138.689 288.197,138.458 287.637 C 138.227 287.077,137.924 285.805,137.786 284.810 L 137.534 283.002 137.496 284.810 M143.221 305.112 C 143.220 305.338,143.462 305.989,143.759 306.559 C 144.056 307.129,144.300 307.410,144.302 307.184 C 144.303 306.958,144.061 306.307,143.764 305.738 C 143.466 305.168,143.222 304.886,143.221 305.112 M144.306 308.364 C 144.305 308.788,144.548 309.336,144.846 309.584 C 145.529 310.151,145.530 309.937,144.849 308.631 C 144.380 307.733,144.308 307.697,144.306 308.364 M145.425 310.871 C 145.405 311.281,145.628 311.932,145.920 312.318 C 146.212 312.704,146.456 313.366,146.462 313.789 C 146.469 314.213,146.718 314.761,147.016 315.009 C 147.315 315.257,147.559 315.713,147.559 316.024 C 147.559 316.335,147.905 317.332,148.327 318.240 C 148.750 319.148,149.543 320.868,150.090 322.061 C 152.302 326.884,152.698 327.672,153.015 327.867 C 153.197 327.980,153.345 328.359,153.345 328.711 C 153.345 329.062,153.774 329.744,154.299 330.226 C 155.233 331.085,155.243 331.087,154.828 330.289 C 154.595 329.842,154.248 329.476,154.056 329.476 C 153.864 329.476,153.707 329.272,153.708 329.024 C 153.708 328.775,152.875 326.863,151.857 324.774 C 150.839 322.685,149.776 320.450,149.496 319.806 C 148.740 318.073,147.881 316.055,147.377 314.828 C 147.131 314.231,146.711 313.255,146.443 312.658 C 146.175 312.061,145.845 311.248,145.709 310.850 C 145.465 310.138,145.460 310.139,145.425 310.871 M155.877 331.134 C 156.175 331.252,156.932 331.578,157.559 331.859 C 158.186 332.139,159.103 332.369,159.597 332.369 C 160.092 332.369,160.962 332.612,161.532 332.909 C 163.033 333.692,170.971 333.665,173.418 332.869 C 175.775 332.102,178.272 330.934,177.567 330.927 C 177.263 330.925,176.693 331.133,176.301 331.391 C 173.128 333.479,164.086 333.573,158.228 331.580 C 157.035 331.174,155.007 330.789,155.877 331.134 " stroke="none" fill="#919196" fill-rule="evenodd"></path><path id="path4" d="M93.418 44.478 C 75.530 44.622,70.095 44.769,69.747 45.118 C 69.498 45.366,68.924 45.570,68.470 45.570 C 66.008 45.570,58.704 50.258,56.357 53.345 C 55.904 53.942,55.351 54.593,55.130 54.792 C 54.700 55.178,52.827 59.021,52.044 61.121 C 51.298 63.123,51.180 70.383,51.876 71.445 C 52.187 71.919,52.441 72.560,52.441 72.870 C 52.441 74.395,56.920 79.566,58.241 79.566 C 58.583 79.566,59.065 79.810,59.313 80.108 C 59.560 80.407,60.137 80.651,60.593 80.651 C 62.217 80.651,62.568 81.008,62.568 82.658 C 62.568 84.506,61.679 85.353,59.740 85.353 C 59.069 85.353,58.088 85.596,57.560 85.893 C 57.032 86.190,56.193 86.596,55.696 86.796 C 53.331 87.746,48.569 91.501,49.729 91.501 C 50.027 91.501,50.271 91.360,50.271 91.188 C 50.271 91.017,50.963 90.406,51.808 89.832 C 52.654 89.258,53.560 88.585,53.823 88.336 C 54.086 88.088,54.514 87.884,54.774 87.884 C 55.033 87.884,55.449 87.640,55.696 87.342 C 55.944 87.043,56.513 86.799,56.962 86.799 C 57.411 86.799,57.980 86.555,58.228 86.257 C 58.498 85.931,59.289 85.714,60.205 85.714 C 62.254 85.714,62.929 84.932,62.929 82.560 C 62.929 80.627,62.636 80.289,60.955 80.289 C 60.498 80.289,59.922 80.045,59.675 79.747 C 59.427 79.448,58.919 79.204,58.545 79.204 C 58.172 79.204,57.866 79.045,57.866 78.850 C 57.866 78.654,57.459 78.393,56.962 78.268 C 56.465 78.143,56.058 77.814,56.058 77.538 C 56.058 77.261,55.814 77.034,55.515 77.034 C 55.217 77.034,54.973 76.798,54.973 76.510 C 54.973 76.221,54.769 75.855,54.521 75.696 C 53.926 75.316,52.803 73.161,52.801 72.394 C 52.799 72.062,52.555 71.324,52.258 70.754 C 51.641 69.571,51.490 63.475,52.069 63.117 C 52.262 62.997,52.527 62.093,52.658 61.106 C 52.789 60.120,53.020 59.313,53.172 59.313 C 53.324 59.313,53.555 58.886,53.686 58.365 C 53.817 57.844,54.160 57.181,54.448 56.893 C 54.737 56.604,54.973 56.054,54.973 55.670 C 54.973 55.287,55.217 54.973,55.515 54.973 C 55.814 54.973,56.058 54.793,56.058 54.574 C 56.058 53.881,61.040 49.355,62.735 48.509 C 63.628 48.062,64.454 47.544,64.570 47.357 C 64.686 47.169,65.166 47.016,65.637 47.016 C 66.109 47.016,66.739 46.772,67.037 46.474 C 67.335 46.175,67.995 45.931,68.502 45.931 C 69.010 45.931,70.046 45.683,70.805 45.379 C 72.019 44.893,81.504 44.792,149.745 44.535 C 223.752 44.256,224.770 44.244,171.971 44.267 C 141.537 44.280,106.188 44.375,93.418 44.478 M228.926 44.754 C 229.817 44.832,230.712 45.033,230.915 45.200 C 231.118 45.368,231.888 45.618,232.627 45.756 C 233.366 45.894,234.159 46.234,234.389 46.512 C 234.620 46.789,234.998 47.016,235.230 47.016 C 235.852 47.016,237.923 48.127,240.458 49.820 C 241.688 50.641,243.016 51.415,243.409 51.540 C 243.802 51.665,244.123 51.918,244.123 52.104 C 244.123 52.289,244.287 52.441,244.488 52.441 C 244.689 52.441,245.664 53.011,246.655 53.707 C 247.645 54.403,248.669 54.973,248.929 54.973 C 249.190 54.973,249.567 55.136,249.766 55.336 C 250.491 56.060,254.358 56.781,257.522 56.781 L 260.759 56.781 260.759 114.478 C 260.759 169.099,260.726 172.187,260.127 172.404 C 259.778 172.530,258.924 173.073,258.228 173.610 C 257.532 174.147,256.596 174.701,256.148 174.840 C 255.701 174.980,255.335 175.246,255.335 175.431 C 255.335 175.617,255.102 175.769,254.818 175.769 C 254.534 175.769,254.086 175.979,253.823 176.236 C 253.560 176.494,252.247 177.411,250.904 178.276 C 249.561 179.140,248.463 179.988,248.463 180.159 C 248.463 180.330,248.287 180.470,248.072 180.470 C 247.857 180.470,246.985 181.040,246.136 181.736 C 245.286 182.432,244.418 183.002,244.206 183.002 C 243.995 183.002,243.767 183.124,243.701 183.273 C 243.635 183.422,242.889 184.014,242.043 184.588 C 241.198 185.162,240.506 185.772,240.506 185.944 C 240.506 186.116,240.332 186.257,240.119 186.257 C 239.906 186.257,239.502 186.460,239.222 186.709 C 238.942 186.958,237.689 188.056,236.437 189.150 C 234.121 191.174,231.465 194.262,231.465 194.930 C 231.465 195.132,231.337 195.298,231.180 195.298 C 231.024 195.298,230.268 196.139,229.501 197.166 C 226.453 201.249,222.423 206.906,222.423 207.102 C 222.423 207.217,221.976 207.904,221.429 208.629 C 220.882 209.355,220.271 210.224,220.072 210.560 C 219.873 210.896,218.287 213.264,216.546 215.823 C 214.806 218.381,213.382 220.669,213.382 220.906 C 213.382 221.144,213.215 221.338,213.011 221.338 C 212.807 221.338,212.479 221.704,212.282 222.152 C 212.085 222.599,211.642 223.399,211.297 223.928 C 210.951 224.458,210.191 225.678,209.608 226.641 C 209.024 227.603,208.332 228.606,208.071 228.869 C 207.809 229.131,207.595 229.499,207.595 229.685 C 207.595 229.872,207.107 230.698,206.510 231.522 C 205.913 232.346,205.425 233.240,205.425 233.508 C 205.425 233.777,205.258 233.996,205.054 233.996 C 204.851 233.996,204.523 234.363,204.326 234.810 C 204.129 235.258,203.652 236.112,203.266 236.709 C 202.880 237.306,202.137 238.608,201.615 239.602 C 201.093 240.597,200.435 241.667,200.152 241.981 C 199.870 242.295,199.638 242.743,199.638 242.976 C 199.638 243.209,199.492 243.400,199.312 243.400 C 199.133 243.400,198.807 243.847,198.588 244.394 C 198.369 244.941,197.867 245.877,197.473 246.474 C 197.078 247.071,196.588 247.884,196.383 248.282 C 196.179 248.680,195.698 249.494,195.316 250.090 C 194.933 250.687,194.081 252.203,193.422 253.459 C 192.763 254.715,192.008 256.098,191.744 256.533 C 190.606 258.407,188.754 261.818,187.829 263.743 C 187.279 264.887,186.701 265.823,186.543 265.823 C 186.386 265.823,186.257 266.103,186.257 266.446 C 186.257 267.260,186.743 266.568,188.601 263.110 C 191.260 258.159,192.539 255.859,193.370 254.528 C 193.834 253.786,194.213 253.085,194.213 252.971 C 194.213 252.779,204.454 235.540,205.873 233.343 C 206.219 232.807,206.616 232.131,206.755 231.839 C 206.894 231.548,207.668 230.328,208.475 229.127 C 209.281 227.926,210.105 226.673,210.305 226.342 C 210.505 226.011,211.203 224.872,211.856 223.810 C 212.509 222.749,213.242 221.556,213.484 221.159 C 213.726 220.762,214.372 219.843,214.919 219.118 C 215.466 218.392,215.913 217.682,215.913 217.541 C 215.913 217.399,216.401 216.667,216.998 215.913 C 217.595 215.160,218.083 214.430,218.083 214.291 C 218.083 214.152,218.368 213.665,218.716 213.209 C 219.431 212.272,219.770 211.779,221.451 209.222 C 223.146 206.645,225.921 202.680,227.653 200.362 C 228.471 199.268,229.378 198.025,229.669 197.601 C 234.696 190.278,240.970 185.154,258.299 174.216 C 259.964 173.165,261.129 172.169,261.259 171.685 C 261.541 170.631,261.537 57.926,261.255 56.872 C 261.046 56.091,260.876 56.058,257.113 56.058 C 251.818 56.058,248.570 54.770,241.223 49.758 C 239.683 48.707,235.118 46.365,232.085 45.069 C 231.333 44.748,229.949 44.513,229.011 44.548 L 227.306 44.611 228.926 44.754 M47.805 93.061 C 47.172 93.714,46.655 94.354,46.655 94.484 C 46.655 94.613,46.197 95.419,45.638 96.275 C 39.311 105.955,42.180 117.386,52.031 121.743 C 54.190 122.698,55.896 122.933,53.888 121.999 C 50.013 120.196,49.338 119.844,48.809 119.349 C 48.491 119.051,47.672 118.286,46.990 117.651 C 42.637 113.593,41.541 106.237,44.347 99.915 C 45.761 96.729,46.148 95.999,46.564 95.732 C 46.813 95.573,47.016 95.243,47.016 94.999 C 47.016 94.755,47.513 94.012,48.119 93.348 C 49.563 91.767,49.296 91.523,47.805 93.061 M55.630 123.892 C 55.808 125.417,54.759 126.771,53.004 127.281 L 51.899 127.602 52.987 127.635 C 54.725 127.687,56.058 126.203,56.058 124.217 C 56.058 123.330,55.928 122.604,55.769 122.604 C 55.610 122.604,55.547 123.184,55.630 123.892 M47.920 129.063 C 46.124 129.986,44.439 131.311,42.118 133.627 C 38.897 136.840,38.588 137.311,35.841 143.191 C 34.723 145.581,35.026 153.055,36.347 155.691 C 37.788 158.565,43.335 164.162,42.445 161.844 C 42.331 161.546,42.078 161.302,41.883 161.302 C 41.688 161.302,40.688 160.422,39.661 159.347 C 37.231 156.802,36.890 156.365,36.890 155.792 C 36.890 155.529,36.609 154.913,36.265 154.423 C 35.363 153.136,35.375 144.859,36.280 143.567 C 36.615 143.088,36.890 142.420,36.890 142.083 C 36.890 141.412,37.890 139.383,38.608 138.598 C 38.856 138.326,39.060 137.969,39.060 137.805 C 39.060 137.323,43.520 132.369,43.954 132.369 C 44.060 132.369,44.619 131.887,45.195 131.297 C 45.771 130.708,46.661 130.120,47.172 129.992 C 47.683 129.864,48.101 129.614,48.101 129.436 C 48.101 129.259,48.305 129.108,48.553 129.102 C 48.802 129.095,49.656 128.775,50.452 128.391 C 51.316 127.973,51.607 127.706,51.175 127.727 C 50.778 127.747,49.313 128.348,47.920 129.063 M43.942 163.110 C 44.539 163.506,45.179 163.830,45.365 163.831 C 46.746 163.841,49.254 165.695,48.510 166.156 C 48.336 166.263,48.102 166.801,47.989 167.352 C 47.777 168.390,45.567 169.620,43.917 169.620 C 43.510 169.620,42.860 169.859,42.474 170.151 C 42.088 170.443,41.583 170.687,41.352 170.694 C 40.176 170.726,33.273 176.327,33.273 177.249 C 33.273 177.415,32.791 178.101,32.201 178.773 C 31.611 179.444,30.961 180.386,30.755 180.865 C 30.550 181.344,30.240 181.980,30.067 182.278 C 29.541 183.187,28.875 185.263,28.559 186.980 C 28.394 187.875,28.070 189.134,27.839 189.778 C 25.991 194.927,30.281 203.994,35.861 206.731 C 40.402 208.959,37.865 208.874,95.263 208.721 L 147.669 208.581 147.396 209.987 C 147.246 210.760,147.010 212.206,146.871 213.201 C 146.732 214.195,146.423 215.365,146.185 215.799 C 145.946 216.233,145.769 217.210,145.792 217.969 C 145.815 218.728,145.911 219.024,146.004 218.626 C 146.097 218.228,146.404 217.205,146.685 216.353 C 146.967 215.500,147.197 214.190,147.197 213.441 C 147.197 212.692,147.370 211.906,147.582 211.695 C 147.794 211.483,147.916 210.596,147.853 209.724 L 147.740 208.137 97.539 208.257 C 46.230 208.378,39.191 208.235,37.472 207.031 C 37.063 206.744,36.439 206.510,36.086 206.510 C 35.732 206.510,35.443 206.358,35.443 206.173 C 35.443 205.987,35.158 205.744,34.810 205.632 C 33.935 205.352,31.103 202.788,31.103 202.277 C 31.103 202.048,30.900 201.642,30.651 201.377 C 28.286 198.848,27.581 188.776,29.512 185.116 C 29.790 184.588,30.018 183.835,30.018 183.442 C 30.018 183.050,30.262 182.526,30.561 182.278 C 30.859 182.031,31.103 181.518,31.103 181.138 C 31.103 180.758,31.347 180.354,31.646 180.239 C 31.944 180.125,32.188 179.799,32.188 179.516 C 32.188 179.233,32.432 178.907,32.731 178.793 C 33.029 178.678,33.273 178.394,33.273 178.161 C 33.273 177.600,37.688 173.237,38.256 173.237 C 38.499 173.237,38.698 173.070,38.698 172.866 C 38.698 172.662,39.064 172.337,39.512 172.144 C 39.959 171.950,40.570 171.653,40.868 171.482 C 42.237 170.701,44.062 170.018,45.360 169.801 C 48.238 169.320,50.778 164.557,48.157 164.557 C 47.777 164.557,47.264 164.313,47.016 164.014 C 46.769 163.716,46.174 163.472,45.695 163.472 C 45.216 163.472,44.730 163.228,44.615 162.929 C 44.501 162.631,44.058 162.388,43.632 162.389 C 42.943 162.391,42.977 162.471,43.942 163.110 M145.110 221.365 C 144.857 222.245,144.504 224.024,144.326 225.316 C 144.147 226.609,143.829 228.318,143.619 229.114 C 143.408 229.910,143.232 231.344,143.227 232.302 C 143.223 233.260,143.050 234.360,142.843 234.745 C 142.637 235.131,142.375 236.545,142.261 237.886 C 142.148 239.228,141.828 241.023,141.552 241.875 C 141.275 242.728,141.049 244.213,141.049 245.175 C 141.049 246.138,140.805 247.617,140.506 248.463 C 140.208 249.309,139.964 250.849,139.964 251.887 C 139.964 252.924,139.721 254.572,139.425 255.548 C 139.129 256.525,138.885 258.152,138.883 259.165 C 138.881 260.178,138.636 261.805,138.340 262.782 C 138.044 263.758,137.820 265.289,137.843 266.184 L 137.884 267.812 138.221 266.184 C 138.406 265.289,138.723 263.255,138.925 261.664 C 139.128 260.072,139.450 258.201,139.642 257.505 C 139.834 256.808,140.133 254.937,140.307 253.345 C 140.480 251.754,140.795 249.801,141.008 249.005 C 141.220 248.210,141.400 246.826,141.407 245.931 C 141.415 245.036,141.656 243.653,141.943 242.857 C 142.229 242.061,142.471 240.426,142.480 239.222 C 142.488 238.019,142.682 236.848,142.910 236.620 C 143.138 236.392,143.396 234.935,143.483 233.383 C 143.570 231.831,143.871 230.048,144.153 229.421 C 144.435 228.794,144.665 227.455,144.665 226.445 C 144.665 225.434,144.922 223.967,145.235 223.184 C 145.548 222.402,145.752 221.312,145.687 220.762 C 145.582 219.870,145.521 219.933,145.110 221.365 M184.867 269.441 C 184.239 270.640,183.725 271.842,183.725 272.113 C 183.725 272.384,183.481 272.808,183.183 273.056 C 182.884 273.304,182.640 273.787,182.640 274.130 C 182.640 274.473,182.372 275.292,182.043 275.950 C 181.448 277.142,181.533 318.185,182.144 324.593 C 182.420 327.492,181.145 328.868,176.130 331.079 C 172.790 332.552,165.176 333.202,162.729 332.222 C 161.936 331.905,160.821 331.646,160.251 331.646 C 159.681 331.646,158.749 331.402,158.179 331.105 C 157.609 330.808,156.788 330.564,156.354 330.563 C 155.566 330.561,154.439 329.305,153.717 327.624 C 153.514 327.151,153.184 326.478,152.985 326.130 C 152.785 325.782,152.458 325.212,152.258 324.864 C 152.058 324.516,151.803 323.987,151.693 323.689 C 151.582 323.391,151.268 322.658,150.996 322.061 C 150.724 321.465,150.398 320.610,150.272 320.163 C 150.145 319.715,149.890 319.349,149.704 319.349 C 149.519 319.349,149.367 319.029,149.367 318.637 C 149.367 318.019,148.703 316.416,147.530 314.200 C 147.347 313.855,147.197 313.364,147.197 313.110 C 147.197 312.856,146.872 312.040,146.474 311.298 C 146.076 310.556,145.750 309.642,145.750 309.268 C 145.750 308.894,145.506 308.385,145.208 308.137 C 144.910 307.890,144.665 307.239,144.665 306.691 C 144.665 306.143,144.421 305.492,144.123 305.244 C 143.825 304.996,143.580 304.337,143.580 303.779 C 143.580 303.221,143.336 302.520,143.038 302.222 C 142.740 301.923,142.495 301.129,142.495 300.457 C 142.495 299.784,142.257 298.918,141.964 298.532 C 141.672 298.146,141.428 297.453,141.422 296.992 C 141.416 296.532,141.226 295.811,141.001 295.390 C 140.512 294.476,139.691 291.360,139.214 288.608 C 139.024 287.514,138.717 286.293,138.531 285.895 C 138.345 285.497,138.122 284.846,138.035 284.448 C 137.936 283.992,137.862 284.142,137.836 284.856 C 137.813 285.479,138.038 286.572,138.336 287.286 C 138.635 288.000,138.885 289.119,138.892 289.771 C 138.899 290.424,139.137 291.365,139.421 291.863 C 139.706 292.360,139.944 293.265,139.951 293.873 C 139.958 294.481,140.203 295.295,140.495 295.681 C 140.787 296.067,141.036 296.872,141.049 297.468 C 141.061 298.065,141.311 298.869,141.603 299.255 C 141.895 299.642,142.134 300.383,142.134 300.904 C 142.134 301.425,142.373 302.167,142.665 302.553 C 142.957 302.939,143.202 303.580,143.210 303.978 C 143.217 304.376,143.466 305.168,143.764 305.738 C 144.061 306.307,144.309 306.958,144.316 307.184 C 144.323 307.410,144.643 308.246,145.027 309.042 C 145.411 309.837,145.731 310.678,145.738 310.911 C 145.745 311.144,145.980 311.795,146.262 312.358 C 146.759 313.354,147.419 314.869,148.402 317.269 C 149.247 319.334,149.961 320.886,151.857 324.774 C 152.875 326.863,153.708 328.685,153.708 328.824 C 153.706 329.373,155.385 330.824,156.239 331.012 C 156.736 331.121,157.631 331.377,158.228 331.580 C 164.086 333.573,173.128 333.479,176.301 331.391 C 176.693 331.133,177.214 330.922,177.458 330.922 C 178.058 330.922,180.807 329.037,181.880 327.892 L 182.746 326.965 182.328 313.663 C 182.099 306.347,181.917 295.235,181.925 288.969 C 181.942 276.227,181.868 276.699,184.768 270.771 C 186.535 267.160,186.613 266.111,184.867 269.441 M137.161 270.193 C 136.536 272.930,136.593 273.932,137.282 272.342 C 137.582 271.650,137.779 270.439,137.720 269.649 L 137.613 268.214 137.161 270.193 M136.451 275.407 C 136.453 276.401,136.524 276.765,136.607 276.216 C 136.690 275.666,136.688 274.852,136.602 274.407 C 136.516 273.963,136.448 274.412,136.451 275.407 M136.749 278.481 C 136.744 279.177,136.967 280.561,137.243 281.555 L 137.745 283.363 137.764 281.917 C 137.774 281.121,137.552 279.738,137.270 278.843 L 136.757 277.215 136.749 278.481 " stroke="none" fill="#b3b3b8" fill-rule="evenodd"></path></g></svg>